# xmcd
#
# Track frame offsets:
#	150
#	22298
#	47276
#	74128
#	104192
#	129088
#	148746
#	175516
#	199818
#	224965
#	244851
#	269077
#	293040
#	319786
#	342708
#
# Disc length: 4638 seconds
#
# Revision: 0
# Processed by: cddbd v1.4PL0 Copyright (c) Steve Scherf et al.
# Submitted via: audiograbber 1.80.04
#
DISCID=04121c0f
DTITLE=Leonard Cohen - Greatest Hits (MTV Music History)
DYEAR=1900
DGENRE=Blues
TTITLE0=My Secret Life
TTITLE1=Everybody Knows
TTITLE2=Waiting For The Miracle
TTITLE3=The Future
TTITLE4=Dance Me To The End Of Love
TTITLE5=I'm Your Man
TTITLE6=Take This Waltz
TTITLE7=Light As The Breeze
TTITLE8=Tower Of Song
TTITLE9=The Law
TTITLE10=Democracy
TTITLE11=Anthem
TTITLE12=Closing Time
TTITLE13=Hallelujah
TTITLE14=The Great Event
EXTD=
EXTT0=
EXTT1=
EXTT2=
EXTT3=
EXTT4=
EXTT5=
EXTT6=
EXTT7=
EXTT8=
EXTT9=
EXTT10=
EXTT11=
EXTT12=
EXTT13=
EXTT14=
PLAYORDER=
